<svg id="adamovies-logo" xmlns="http://www.w3.org/2000/svg" viewBox="0 0 512 454.2024">
  <!-- Made by Adam on 2024-08-05 -->
  <!-- Based on the original design from 2023-02-25 -->
  <path fill="currentColor" d="m101.819,285.5531c1.1526-3.77-1.032-7.7617-4.8366-8.7944-50.3019-13.6537-81.9823-33.667-81.9823-55.6575,0-30.9225,63.8017-69.7059,153.3391-86.102C70.1281,148.7011,0,184.7654,0,227.1012c0,29.7832,34.7161,56.4589,89.4919,74.4321,3.7156,1.2192,7.709-.8751,8.8523-4.6147l3.4748-11.3656Z" style="stroke-width:0px;" />
  <path fill="currentColor" d="m109.0834,123.8583c-9.2118-49.4434-4.4286-86.506,13.9262-97.1031,34.9153-20.1584,116.9457,56.5559,183.2199,171.3461,11.2973,19.5675,21.4069,38.978,30.2335,57.8167,1.5296,3.2646,5.0692,5.0843,8.6195,4.4583l23.6125-4.1635c5.0711-.8942,8.0092-6.2851,5.9711-11.0139-9.4532-21.9343-20.745-44.4932-33.7956-67.0976C270.178,55.6583,174.8727-21.6632,128,5.3987c-26.3613,15.2197-31.7891,60.2143-18.9166,118.4595Z" style="stroke-width:0px;" />
  <path fill="currentColor" d="m383.7113,331.4c-3.8412.8868-6.2058,4.7746-5.1978,8.5858,13.3265,50.3896,11.8347,87.8323-7.2096,98.8275-26.7797,15.4613-92.268-20.4009-151.2361-89.7446,60.9716,78.2023,127.2683,120.9029,163.9322,99.735,25.793-14.8916,31.5367-58.2945,19.7142-114.7183-.802-3.8274-4.6124-6.2387-8.4226-5.359l-11.5803,2.6735Z" style="stroke-width:0px;" />
  <path fill="currentColor" d="m240.0473,405.9562c-38.2133,32.6994-72.7021,47.0883-91.0569,36.4911-34.9153-20.1584-9.494-129.5559,56.7801-244.3461,11.2973-19.5675,23.0525-38.028,34.954-55.0913,2.0624-2.9569,1.8686-6.9322-.4488-9.6939l-15.412-18.3672c-3.3099-3.9446-9.4476-3.7936-12.5239.3358-14.269,19.1539-28.1598,40.2123-41.2104,62.8166-70.6924,122.4429-90.0022,243.6406-43.1295,270.7025,26.3613,15.2197,68.0416-2.577,112.0473-42.8475Z" style="stroke-width:0px;" />
  <path fill="currentColor" d="m282.4697,64.3506c2.6886,2.8832,7.2378,2.9871,10.0345.2085,36.9754-36.7359,70.1476-54.1653,89.192-43.1701,26.7797,15.4613,28.4663,90.1069-2.103,175.8466,37.2394-91.9041,41.0708-170.669,4.4069-191.8369-25.793-14.8916-66.2529,1.8356-109.206,40.2862-2.9136,2.6082-3.0967,7.1137-.4297,9.9737l8.1055,8.692Z" style="stroke-width:0px;" />
  <path fill="currentColor" d="m418.8693,151.4892c47.4252,16.744,77.1307,39.4177,77.1307,60.612,0,40.3168-107.4517,73-240,73-22.5945,0-44.4594-.95-65.1875-2.7254-3.592-.3077-6.9377,1.8478-8.1708,5.2356l-8.2005,22.5308c-1.7612,4.8388,1.4384,10.0787,6.5528,10.6782,23.7222,2.7804,48.9047,4.2809,75.006,4.2809,141.3849,0,256-43.8761,256-98,0-30.4394-36.2526-57.6373-93.1307-75.612Zm-200.3741,158.8904c-.205,2.9318-2.7479,5.1422-5.6796,4.9372l-21.3052-1.4898c-2.9318-.205-5.1422-2.7479-4.9372-5.6796l.9317-13.3247c.205-2.9318,2.7479-5.1423,5.6796-4.9373l21.3052,1.4898c2.9318.205,5.1422,2.7479,4.9372,5.6796l-.9317,13.3247Zm43.3858.9784c-.0513,2.9385-2.475,5.279-5.4135,5.2277l-21.3539-.3728c-2.9385-.0513-5.279-2.475-5.2277-5.4135l.2332-13.3552c.0513-2.9385,2.475-5.279,5.4135-5.2277l21.3539.3728c2.9385.0513,5.279,2.475,5.2277,5.4135l-.2332,13.3552Zm38.3109,3.9659l-21.3369.9315c-2.9362.1282-5.4202-2.1481-5.5485-5.0842l-.5826-13.3445c-.1282-2.9361,2.1481-5.4202,5.0842-5.5484l21.3369-.9315c2.9362-.1282,5.4202,2.1481,5.5485,5.0842l.5826,13.3445c.1282,2.9361-2.1481,5.4202-5.0842,5.5484Zm43.6826-3.4047l-21.2402,2.2324c-2.9229.3072-5.5413-1.8132-5.8484-4.736l-1.3962-13.2841c-.3073-2.9228,1.8132-5.5413,4.736-5.8484l21.2402-2.2324c2.9229-.3072,5.5413,1.8132,5.8484,4.736l1.3962,13.2841c.3073,2.9228-1.8132,5.5413-4.736,5.8484Zm43.4727-8.2856l-19.9124,4.2324c-2.8747.611-5.7004-1.224-6.3115-4.0987l-2.5692-12.0872c-.611-2.8747,1.224-5.7004,4.0987-6.3115l19.9124-4.2324c2.8747-.6111,5.7004,1.224,6.3115,4.0987l2.5692,12.0872c.611,2.8747-1.224,5.7004-4.0987,6.3115Zm41.057-11.4343l-18.5601,5.4977c-2.8179.8347-5.7789-.773-6.6136-3.5909l-3.2256-10.8895c-.8347-2.8179.773-5.7789,3.5909-6.6136l18.5601-5.4977c2.8179-.8347,5.7789.7729,6.6136,3.5909l3.2256,10.8895c.8347,2.8179-.773,5.7789-3.5909,6.6136Zm37.5915-16.4926l-15.8566,7.0598c-2.6848,1.1954-5.8303-.0121-7.0257-2.697l-3.8059-8.5482c-1.1954-2.6848.0121-5.8304,2.6969-7.0257l15.8566-7.0598c2.6848-1.1954,5.8303.0121,7.0257,2.6969l3.8059,8.5483c1.1954,2.6848-.0121,5.8303-2.6969,7.0257Zm29.9324-21.6157l-11.1577,9.0353c-2.284,1.8495-5.6348,1.4973-7.4844-.7866l-4.0007-4.9405c-1.8495-2.284-1.4973-5.6348.7867-7.4844l11.1577-9.0353c2.284-1.8495,5.6348-1.4973,7.4844.7866l4.0007,4.9406c1.8495,2.2839,1.4973,5.6348-.7867,7.4843Z" style="stroke-width:0px;" />
</svg>