<svg id="Layer_1" xmlns="http://www.w3.org/2000/svg" viewBox="0 0 512 456.32">
  <!-- Made by Adam on 2023-02-25  -->
  <path d="M13,254.24c0-33.09,63-65.65,152.22-79.33C68.65,183.54,0,207.43,0,250.17c0,30.93,31.54,53.58,88,73.3C39.22,300.57,13,277.32,13,254.24Z" transform="translate(0 -27.84)" />
  <path d="M377,43.62c28.67,16.55,29.93,73.86-2.84,158C415,113.66,424.05,55.77,387,34.4,360.25,18.94,317,35.46,271.67,74.49,315.9,43.7,357,32.08,377,43.62Z" transform="translate(0 -27.84)" />
  <path d="M132.4,468.51c-33.48-19.33-6.9-128.06,59.37-242.85a769.72,769.72,0,0,1,51.31-77.91,6,6,0,0,0-.57-7.83l-19.28-19.29a6,6,0,0,0-8.87.42,612,612,0,0,0-58.09,84.11C85.57,327.6,67,449.25,114.87,476.86c30.61,17.67,81-7.45,131.8-59.91C198.87,460.45,152.88,480.33,132.4,468.51Z" transform="translate(0 -27.84)" />
  <path d="M359,290.09l26.14-5.3a6,6,0,0,0,4.42-8,510.73,510.73,0,0,0-33.78-71.61C285,82.72,189,5.84,141.13,33.46,110.52,51.13,103.63,94,123.65,164.27c-13.77-63.14-4.53-99.63,15.95-111.46C173.08,33.48,254,110.87,320.23,225.66c12,20.77,22.73,41.29,32.11,61.11A6,6,0,0,0,359,290.09Z" transform="translate(0 -27.84)" />
  <path d="M386.49,354.85a6,6,0,0,0-4.27,7.66c17.33,54.37,18.67,94.92-.65,106.08-20.48,11.82-98.44-46.93-146.24-90.43,50.83,52.47,118.93,115,152.8,104.92,28.06-8.37,36.3-61,23.66-127.95a6,6,0,0,0-7.35-4.72Z" transform="translate(0 -27.84)" />
  <path d="M410,179.47c61.57,19.65,83,38.35,83,62,0,38.66-104.45,70-237,70a782.07,782.07,0,0,1-81.49-4.14,6,6,0,0,0-6.29,3.91l-9.63,26.48a6,6,0,0,0,4.73,8A621.25,621.25,0,0,0,256,352.47c141.38,0,256-44.77,256-100C512,217.13,480.85,197.26,410,179.47ZM209.17,339.58a4,4,0,0,1-4.33,3.64L179.62,341a4,4,0,0,1-3.63-4.33l1.53-17.48a4,4,0,0,1,4.33-3.63l25.22,2.2a4,4,0,0,1,3.63,4.33Zm48.51.58a4,4,0,0,1-4,4H228.37a4,4,0,0,1-4-4V322.62a4,4,0,0,1,4-4h25.31a4,4,0,0,1,4,4Zm44.65,2.32-25.28,1.33a4,4,0,0,1-4.2-3.79l-.92-17.52a4,4,0,0,1,3.79-4.2L301,317a4,4,0,0,1,4.21,3.78l.92,17.52A4,4,0,0,1,302.33,342.48Zm49.37-4.83-24,3a4,4,0,0,1-4.45-3.48L321.1,319.7a4,4,0,0,1,3.48-4.45l24-2.95a4,4,0,0,1,4.45,3.48l2.14,17.42A4,4,0,0,1,351.7,337.65ZM398,328.89l-20.74,4.56a4.54,4.54,0,0,1-5.4-3.45l-3.23-14.73a4.51,4.51,0,0,1,3.45-5.39l20.74-4.56a4.51,4.51,0,0,1,5.39,3.45l3.24,14.72A4.53,4.53,0,0,1,398,328.89Zm44.53-14.29-20.22,6.18a3.49,3.49,0,0,1-4.36-2.32l-4.49-14.67a3.5,3.5,0,0,1,2.32-4.36L436,293.25a3.49,3.49,0,0,1,4.36,2.32l4.49,14.66A3.51,3.51,0,0,1,442.56,314.6Zm36.83-18.31L463,305a3.53,3.53,0,0,1-4.79-1.46L452,291.72a3.54,3.54,0,0,1,1.47-4.79l16.35-8.7a3.55,3.55,0,0,1,4.79,1.47l6.28,11.8A3.55,3.55,0,0,1,479.39,296.29ZM493.51,282a3,3,0,0,1-4.21.23l-8.18-7.5a3,3,0,0,1-.14-4.21l10.66-11.62a3,3,0,0,1,4.2-.24l8.19,7.5a3,3,0,0,1,.13,4.21Z" transform="translate(0 -27.84)" />
</svg>